<?xml version="1.0" encoding="UTF-8"?> <svg xmlns="http://www.w3.org/2000/svg" width="251" height="65" viewBox="0 0 251 65" fill="none"><path d="M242.405 35.4396C241.312 34.6239 240.206 33.788 238.997 33.173C233.86 30.5584 228.372 29.9533 222.73 30.6929C220.193 31.0255 218.095 32.3283 216.679 34.4995C215.288 36.6334 216.416 38.931 218.948 39.1237C221.918 39.3499 224.462 38.3038 226.561 36.2021C228.267 34.4925 228.44 33.2857 227.303 31.1845C227.553 31.1658 227.78 31.1219 228.004 31.1364C229.58 31.239 231.168 31.2649 232.729 31.4827C235.96 31.9337 238.878 33.135 241.225 35.4828C242.849 37.1059 243.23 39.4538 242.214 41.4151C241.661 42.4839 240.713 43.1762 239.71 43.7548C236.683 45.5005 233.348 46.1283 229.914 46.1503C221.834 46.2019 214.056 44.6682 206.61 41.4953C206.262 41.3472 205.844 41.3435 205.456 41.3161C204.931 41.2792 204.403 41.2869 203.876 41.2708C203.717 41.266 203.558 41.245 203.399 41.2317C203.625 41.4448 203.858 41.5514 204.096 41.6427C211.266 44.3916 218.681 46.0687 226.341 46.5503C230.175 46.7913 234.013 46.5581 237.655 45.1939C240.456 44.1451 243.036 42.7282 244.179 39.6704C244.179 39.1506 244.179 38.6311 244.179 38.1113C243.821 37.0652 243.293 36.1029 242.405 35.4396ZM227.253 34.2663C227.197 34.4452 227.132 34.6311 227.027 34.7831C225.543 36.9263 223.574 38.2447 220.894 38.2514C219.81 38.2541 218.975 37.4255 219.043 36.5223C219.092 35.8853 219.375 35.4005 220.007 35.1662C220.269 35.0691 220.523 34.9509 220.934 34.7777C220.339 34.339 220.514 33.945 220.762 33.5288C221.582 32.1543 224.424 30.9327 225.981 31.2976C227.221 31.5879 227.726 32.7593 227.253 34.2663Z" fill="white"></path><path d="M176.142 32.3457C176.041 32.3878 176.087 32.3722 176.142 32.3457V32.3457Z" fill="white"></path><path d="M122.146 27.0484C121.38 28.2006 121.876 29.2458 123.242 29.3422C124.705 29.4454 126.117 29.2241 127.384 28.415C127.955 28.0502 128.517 27.6706 129.134 27.2647C129.818 28.716 131.053 29.1058 132.448 28.9546C133.609 28.8289 134.748 28.5046 135.894 28.2522C136.178 28.1895 136.448 28.0646 136.733 27.9656C136.975 29.1669 137.546 29.6678 138.732 29.3659C140.619 28.886 142.454 28.1997 144.309 27.5944C144.509 27.529 144.696 27.4219 144.889 27.3342C144.906 27.3697 144.924 27.4053 144.941 27.4409C144.432 28.0017 143.924 28.5627 143.341 29.2051C144.558 29.2051 145.621 29.238 146.679 29.1857C147.008 29.1694 147.414 29.005 147.635 28.7686C150.055 26.1833 152.474 23.5953 154.825 20.9469C155.422 20.2739 156.045 20.082 156.866 20.1565C157.784 20.2397 158.124 20.6728 157.742 21.516C157.456 22.1481 157.001 22.7082 156.591 23.2794C155.671 24.5632 154.676 25.7977 153.819 27.1216C153.201 28.0767 153.571 28.7989 154.662 29.0852C156.157 29.4777 158.152 28.6986 159.002 27.3536C158.62 27.576 158.294 27.8046 157.938 27.963C157.503 28.1562 156.989 28.5635 156.58 28.0873C156.178 27.6182 156.616 27.16 156.901 26.7705C157.263 26.2757 157.665 25.8103 158.051 25.3332C158.69 24.5443 159.364 23.7813 159.961 22.9622C160.864 21.724 160.564 20.743 159.135 20.191C158.677 20.0142 158.185 19.8966 157.697 19.831C154.882 19.4521 152.124 19.7835 149.479 20.7645C148.326 21.1923 147.236 21.8542 146.221 22.5604C145.746 22.8913 145.447 23.5476 145.201 24.1142C144.972 24.64 145.197 25.1106 145.773 25.3936C145.648 23.3031 148.514 21.5014 150.895 21.0128C150.861 21.0804 150.842 21.1509 150.798 21.1979C149.365 22.7346 147.929 24.2694 146.493 25.8029C146.413 25.8885 146.32 26.029 146.232 26.0301C145.121 26.0437 144.454 26.946 143.543 27.3486C142.574 27.7766 141.599 28.2041 140.596 28.5363C139.847 28.7839 139.535 28.4493 139.792 27.6994C139.955 27.2212 140.227 26.7477 140.558 26.3649C141.792 24.9362 143.064 23.5405 144.335 22.1434C144.98 21.4339 145.651 20.7481 146.425 19.9303C145.604 20.0546 144.957 20.2356 144.311 20.2326C143.076 20.2271 141.99 20.4831 141.199 21.513C141.177 21.5424 141.113 21.5399 141.069 21.5524C141.095 21.4878 141.121 21.4232 141.147 21.3587C140.298 20.9971 139.474 20.4244 138.595 20.325C137.375 20.1868 136.071 20.2217 134.879 20.5049C132.077 21.1704 129.842 22.6177 129.009 25.6151C128.963 25.7775 128.776 25.8983 128.664 26.0453C128.471 26.2995 128.234 26.5362 128.104 26.8207C127.615 27.8848 126.806 28.5552 125.678 28.7988C125.339 28.8721 124.957 28.7464 124.594 28.7118C124.635 28.3311 124.572 27.895 124.74 27.5826C125.014 27.0715 125.396 26.5993 125.807 26.1835C127.764 24.2014 129.746 22.2442 131.718 20.2766C131.882 20.113 132.035 19.938 132.174 19.7882C131.11 19.9492 130.099 20.1517 129.077 20.2342C128.606 20.2724 128.253 20.3641 127.885 20.6828C126.813 21.6126 125.946 22.8398 124.702 23.0808C124.304 23.8276 124.047 24.4145 123.698 24.9396C123.214 25.6651 122.629 26.3225 122.146 27.0484ZM132.67 24.8257C133 24.6124 133.364 24.4524 133.857 24.1916C133.455 24.0666 133.213 23.9915 132.763 23.8516C133.106 23.3595 133.326 22.8538 133.703 22.5347C135.31 21.1773 137.165 20.6632 139.251 21.0929C139.297 21.1023 139.354 21.0972 139.388 21.123C139.787 21.4268 140.182 21.7351 140.577 22.0424C140.191 22.2526 139.805 22.4642 139.417 22.6719C139.358 22.7038 139.29 22.719 139.155 22.7673C139.362 23.6669 138.834 24.3116 138.346 24.9848C137.987 25.4803 137.641 25.992 137.353 26.5304C136.597 27.9399 133.852 28.5538 132.576 27.5754C131.508 26.7573 131.543 25.5545 132.67 24.8257Z" fill="white"></path><path d="M232.058 46.9675C230.233 47.1611 228.388 47.6138 226.585 47.485C223.583 47.2705 220.588 46.7841 217.623 46.2342C208.737 44.586 199.879 42.7813 190.985 41.1785C186.025 40.2848 180.994 40.0452 175.955 40.3902C174.231 40.5081 172.533 40.8272 170.985 41.6678C170.141 42.1258 169.446 42.7334 169.069 43.5912C169.837 44.2378 170.562 44.8492 171.311 45.4799C171.153 43.6336 172.322 42.7753 173.815 42.1912C174.384 41.9687 174.975 41.7833 175.572 41.6536C179.898 40.7124 184.278 40.8841 188.615 41.3588C192.692 41.8048 196.742 42.5464 200.778 43.297C207.019 44.4579 213.232 45.7658 219.468 46.9546C222.669 47.565 225.896 48.0873 229.175 47.7211C230.295 47.5958 231.398 47.3204 232.51 47.1136C232.496 47.0415 232.483 46.9692 232.47 46.8971C232.332 46.9209 232.196 46.953 232.058 46.9675Z" fill="white"></path><path d="M133.426 17.8862C131.87 18.3364 130.483 18.7375 129.096 19.1386C129.126 19.2229 129.155 19.3071 129.184 19.3914C130.727 19.4294 132.138 19.0878 133.426 17.8862Z" fill="white"></path><path d="M123.389 20.1166C123.08 19.9601 122.725 19.8558 122.38 19.8171C120.695 19.6276 119.087 19.8991 117.581 20.7022C117.067 20.9763 116.556 21.2558 116.03 21.5409C115.522 20.5714 114.672 20.1874 113.732 19.9577C112.147 19.5708 110.547 19.6199 108.945 19.8286C106.774 20.1113 104.674 20.633 102.775 21.7687C101.96 22.2563 101.198 22.8247 100.828 23.7553C100.526 24.5142 100.668 24.9523 101.313 25.3461C101.121 23.3447 104.139 21.3994 106.496 21.0323C104.414 23.257 102.367 25.4455 100.316 27.6295C100.223 27.7295 100.097 27.8138 99.9698 27.8664C98.6456 28.414 97.2799 28.7567 95.8327 28.636C94.732 28.544 93.8167 27.8671 93.5596 27.0268C94.7119 26.3082 95.8922 25.6571 96.9759 24.8723C98.1004 24.0582 99.2077 23.1781 99.7737 21.8372C100.353 20.4641 99.8328 19.6861 98.3418 19.6537C96.0616 19.6039 94.1728 20.5651 92.4971 21.9942C90.7858 23.4537 90.1238 25.2795 90.8405 27.6906C89.4288 27.9589 88.0331 28.2567 86.6253 28.4737C86.1209 28.5514 85.5649 28.476 85.2955 27.8937C85.0204 27.2995 85.2177 26.7855 85.6035 26.3246C85.8148 26.0719 86.0564 25.8433 86.2952 25.6148C87.6432 24.3248 89.005 23.049 90.338 21.7439C90.7221 21.3678 91.0716 20.9383 91.3566 20.4832C91.7252 19.8947 91.5853 19.4936 90.9219 19.2829C90.4841 19.144 89.9866 19.0763 89.5331 19.1281C88.6138 19.2334 87.7062 19.4416 86.7939 19.6075C86.7482 19.5553 86.7026 19.5031 86.6569 19.451C89.0526 17.4325 91.444 15.409 93.8495 13.4022C94.1164 13.1796 94.4542 13.0349 94.7734 12.8841C95.4449 12.5666 96.1354 12.0433 96.767 13.053C96.3588 11.8593 95.4424 11.4207 94.3975 11.1909C92.4237 10.757 90.6505 11.3793 89.1575 12.5684C86.798 14.4476 84.552 16.471 82.2863 18.4655C81.5413 19.1213 80.9054 19.9122 79.6985 19.8738C80.0486 20.8674 79.4572 21.405 78.8813 21.9415C77.3608 23.3579 75.8625 24.7998 74.305 26.1744C71.0486 29.0481 67.8429 31.9853 64.1782 34.3586C61.9808 35.7816 59.7138 36.9796 57.0686 37.3647C54.6087 37.7226 52.2638 37.5449 50.0901 36.2482C49.6851 36.0065 49.3407 35.6632 48.8635 35.2834C49.8347 35.014 50.6291 34.8105 51.4133 34.5728C55.3705 33.3742 58.9638 31.5994 61.5349 28.1924C61.9998 27.5761 63.038 27.5584 63.5871 28.1093C64.2267 28.7509 65.0314 28.9921 65.8983 29.0366C69.249 29.2087 72.0399 27.9669 74.3143 25.561C74.7849 25.0631 75.1833 24.4046 75.3718 23.7502C75.8654 22.0373 75.5118 20.3381 73.2899 19.9843C70.8137 19.5902 68.5004 20.043 66.3447 21.3102C65.355 21.8919 64.3762 22.4928 63.284 23.15C63.0876 24.3869 62.8651 25.7886 62.6239 27.308C62.5025 27.3505 62.2325 27.4449 61.8992 27.5614C61.9237 27.3607 61.9282 27.2688 61.9468 27.18C62.4352 24.8469 61.936 22.7532 60.0945 21.2158C59.0093 20.3099 57.669 19.7053 56.4265 18.9945C56.0576 18.7836 55.6314 18.6726 55.092 18.4613C56.6491 18.2847 58.0373 18.1702 59.4111 17.9614C61.4567 17.6506 63.4331 17.1113 65.1194 15.8264C66.812 14.5365 66.9581 12.6034 65.4138 11.1076C64.8137 10.5262 64.0667 10.0965 63.3046 9.53766C64.1429 8.79783 65.0194 8.10349 66.1834 7.88919C67.2801 7.68723 67.5426 7.89458 67.6123 9.00008C67.6279 9.24825 67.7018 9.49287 67.7488 9.73906C68.278 8.31013 67.6146 6.92812 66.2346 6.39663C65.0593 5.94409 63.8466 5.9129 62.6115 6.13627C61.0066 6.42668 59.7009 7.32397 58.3494 8.1453C58.0511 8.32671 57.6542 8.45385 57.3111 8.43698C54.3221 8.28986 51.4816 8.91164 48.7721 10.1142C47.767 10.5602 46.8087 11.1517 45.9141 11.7951C45.1689 12.331 44.6672 13.1149 44.8781 14.1065C44.9275 14.3391 45.282 14.5066 45.4962 14.7043C45.5499 14.4191 45.7222 14.089 45.6343 13.8579C45.3954 13.229 45.553 12.7364 46.0016 12.3221C46.3631 11.9883 46.7583 11.6775 47.1788 11.4231C49.2025 10.199 51.397 9.41733 53.7303 9.06201C54.9046 8.88301 56.0963 8.8188 57.2802 8.70287C57.3006 8.76976 57.3209 8.83652 57.3413 8.90341C57.1755 9.05011 57.0102 9.19722 56.8438 9.34335C54.7157 11.2122 52.5692 13.0608 50.4685 14.9597C49.6255 15.7216 48.8666 16.5685 47.6495 16.5989C47.62 16.931 47.5979 17.1809 47.5708 17.4869C47.2949 17.4869 47.0624 17.4833 46.83 17.4875C44.1995 17.5354 41.6008 17.8313 39.0657 18.5565C36.9149 19.1719 34.8569 19.9941 33.2168 21.5879C32.0749 22.6975 31.3329 24.0158 31.4466 25.6718C31.575 27.541 33.5969 28.6993 35.2642 27.8822C33.4214 27.684 32.6201 26.532 33.2331 24.7123C33.5093 23.8923 34.0035 23.0665 34.6093 22.4504C36.9885 20.0312 39.959 18.6966 43.273 18.1413C44.5804 17.9223 45.9187 17.8869 47.2428 17.7679C47.2749 17.8567 47.3069 17.9455 47.3389 18.0344C42.6386 23.1431 37.3031 27.5218 31.6516 31.6567C28.2722 27.9001 28.3486 24.1708 31.4817 20.2393C27.352 22.8938 25.9035 27.5689 30.1322 32.6998C28.9987 33.306 27.8826 33.9132 26.7574 34.503C23.5458 36.1868 20.1443 36.9952 16.5096 36.6746C14.4108 36.4895 12.4113 35.9753 10.6751 34.7151C8.73653 33.3077 8.21524 30.9123 9.44971 29.0382C9.60831 28.7975 9.9435 28.5393 10.2095 28.5253C11.7141 28.4455 13.2314 28.3235 14.7272 28.4385C16.0928 28.5436 17.4366 28.9316 18.755 29.1883C17.6637 28.3753 16.3555 27.9184 14.9694 27.7528C13.5905 27.5883 12.195 27.5636 10.8177 27.4782C13.2813 25.0152 18.1119 23.35 21.5406 23.8477C22.25 23.9508 22.9701 24.1818 23.6107 24.5028C24.3209 24.8587 24.3983 25.4297 23.9847 26.1081C23.7883 26.4301 23.5537 26.7301 23.3716 27.0595C23.0292 27.6791 23.2537 28.1325 23.954 28.2162C24.5617 28.2889 25.1456 28.2071 25.5565 27.6817C25.95 27.1787 25.8982 26.6223 25.6777 26.0712C25.2753 25.0656 24.5441 24.3276 23.5159 24.0796C22.0342 23.7223 20.5162 23.3267 19.0082 23.3041C14.7762 23.2404 11.0493 24.6189 8.00137 27.6548C7.64761 28.0071 7.16814 28.2343 6.74323 28.5139C5.8825 29.0803 4.95615 29.5676 4.17323 30.2258C3.19345 31.0495 3.06958 32.2047 3.33008 33.4096C3.7316 35.2668 5.06316 36.3522 6.61 37.185C9.99991 39.0102 13.712 39.3716 17.4688 39.3321C23.1696 39.2724 28.517 37.7838 33.5578 35.1428C33.7792 35.0269 34.0964 34.9981 34.3457 35.0474C35.4085 35.2572 36.4658 35.4978 37.5166 35.7616C37.7307 35.8153 38.0187 35.9776 38.0846 36.1586C39.0028 38.6798 40.9781 40.0156 43.382 40.7755C47.1469 41.9657 51.0056 41.9795 54.8813 41.4372C59.3054 40.8183 63.2127 38.9135 66.9152 36.5291C71.5982 33.5132 75.7671 29.8469 79.8865 26.1289C81.8487 24.358 83.707 22.4717 85.6074 20.6325C86.4266 19.8396 87.5174 19.6704 88.3287 20.2929C88.1051 20.531 87.8904 20.7677 87.6673 20.9957C86.1656 22.5316 84.6503 24.0545 83.168 25.6089C82.8328 25.9602 82.5555 26.3929 82.3466 26.8333C81.9029 27.7682 82.2092 28.5681 83.1972 28.8435C83.9339 29.0485 84.7552 29.2027 85.4957 29.0916C87.2149 28.8334 88.9061 28.3916 90.6135 28.0493C90.8496 28.002 91.1375 28.0427 91.3615 28.1371C92.1341 28.4625 92.8577 28.9587 93.6573 29.1547C95.3968 29.5807 97.1273 29.2522 98.831 28.8056C98.918 28.7829 99.0106 28.7802 99.1387 28.7632C99.0795 28.9208 99.0357 29.0372 98.9774 29.1923C100.093 29.1923 101.173 29.2258 102.249 29.1718C102.576 29.1556 102.975 28.9763 103.198 28.7379C105.538 26.2376 107.878 23.7356 110.148 21.1726C110.721 20.5253 111.314 20.2532 112.105 20.3928C112.52 20.4662 113.193 20.6027 113.253 20.8375C113.362 21.2661 113.142 21.8029 112.981 22.2672C112.894 22.5195 112.647 22.7184 112.467 22.9368C110.918 24.8124 109.367 26.6862 107.819 28.5626C107.684 28.7267 107.567 28.9058 107.376 29.1667C108.169 29.1667 108.808 29.141 109.443 29.1755C109.886 29.1996 110.183 29.0682 110.458 28.7039C111.182 27.7422 111.925 26.7916 112.709 25.8786C113.753 24.6635 114.764 23.4029 115.935 22.3192C117.183 21.1642 118.756 20.6152 120.648 20.5303C118.257 23.4625 115.972 26.2641 113.587 29.1894C114.655 29.1894 115.547 29.2285 116.433 29.169C116.76 29.147 117.161 28.9727 117.376 28.7323C119.49 26.3774 121.572 23.9936 123.663 21.6179C124.261 20.9373 124.201 20.5276 123.389 20.1166ZM66.3284 24.4562C67.2807 23.2389 68.4878 22.2849 69.8918 21.6248C70.6425 21.2721 71.4433 21.0351 72.2678 21.4677C72.7615 21.7268 72.908 22.0972 72.5634 22.5581C72.3124 22.8936 72.0424 23.2414 71.7082 23.4835C69.8796 24.808 67.8177 25.6581 65.7044 26.3939C65.6263 26.3422 65.5483 26.2905 65.4704 26.2386C65.7497 25.6396 65.9316 24.9637 66.3284 24.4562ZM74.3148 22.6493C74.2137 23.1408 74.2022 23.6738 73.9966 24.1168C72.8549 26.5759 70.857 27.9643 68.2314 28.4017C67.6109 28.505 66.8799 28.2843 66.2778 28.0288C65.9265 27.8797 65.7299 27.3661 65.3768 26.9025C68.7358 25.9495 71.6877 24.8013 74.3148 22.6493ZM32.631 35.1799C28.8625 37.222 24.8021 38.3269 20.5739 38.8216C16.7352 39.2707 12.9206 39.0906 9.24591 37.7919C8.10824 37.3897 6.97213 36.8108 6.02778 36.0682C3.85264 34.3575 4.05446 31.4833 6.33717 30.0601C6.41073 30.0143 6.4979 29.9903 6.61766 29.9397C6.61766 30.3141 6.61085 30.6368 6.61879 30.9591C6.65933 32.6162 7.41092 33.8813 8.73794 34.8436C11.0796 36.5418 13.7305 37.2267 16.582 37.316C21.6401 37.4744 26.4996 36.6266 31.1224 34.5252C32.2187 34.0268 32.2228 34.0359 33.4247 34.7019C33.1258 34.8829 32.8844 35.0426 32.631 35.1799ZM63.8009 14.0335C63.373 14.7039 62.7548 15.3272 62.0846 15.7551C59.8727 17.1674 57.3657 17.6813 54.7985 17.942C54.7623 17.8826 54.7261 17.8232 54.6899 17.7638C57.2915 15.2179 59.8931 12.672 62.4627 10.1574C64.1241 10.9533 64.7084 12.6116 63.8009 14.0335ZM66.7707 7.47917C65.2116 7.63805 64.0728 8.29157 62.9919 9.12834C62.714 9.34363 62.1951 9.24725 61.6608 9.30848C62.7287 7.70338 65.1567 6.82083 66.7707 7.47917ZM55.8755 14.5789C57.4259 13.0625 58.994 11.564 60.5251 10.0285C61.0156 9.53653 61.4597 9.34731 62.0559 9.91934C61.9566 10.0323 61.8496 10.1715 61.7253 10.2931C59.315 12.6495 56.8841 14.9852 54.5052 17.3729C53.9689 17.9112 53.443 18.0581 52.5553 17.8445C53.73 16.6888 54.7999 15.6309 55.8755 14.5789ZM33.7536 33.3515C35.9452 31.8072 38.2136 30.4201 40.2368 28.7382C44.0838 25.5403 47.8062 22.1911 51.5394 18.8587C52.1215 18.3391 52.6124 18.3081 53.0919 18.5098C52.1712 19.5135 51.278 20.6139 50.2566 21.5786C46.3927 25.2282 42.376 28.7029 38.0939 31.8585C37.3165 32.4315 36.4433 32.8747 35.6676 33.4496C34.954 33.9786 34.3488 33.9154 33.7536 33.3515ZM37.8485 34.8707C37.0297 34.6412 36.2482 34.4221 35.329 34.1646C36.55 33.3482 37.6467 32.6336 38.7241 31.8915C43.4282 28.6513 47.5391 24.7126 51.7052 20.8397C52.345 20.245 52.9588 19.6221 53.6081 19.0384C53.759 18.9026 54.0381 18.7636 54.2038 18.8119C56.5391 19.4952 58.432 20.7115 59.1183 23.2196C59.6054 24.9992 59.0138 26.5701 58.0084 28.0165C56.4358 30.279 54.228 31.7471 51.7768 32.8812C50.669 33.3937 49.5209 33.8192 48.351 34.3005C47.8211 33.053 48.2102 31.5508 49.1881 30.8939C49.3902 30.7582 49.7265 30.7187 49.9723 30.7707C50.7963 30.9449 51.6073 31.1807 52.4801 31.2933C51.7045 30.9354 50.9291 30.5772 50.075 30.1831C52.1249 28.3998 54.5417 27.8153 57.1292 27.6877C54.7958 27.3586 52.5254 27.6079 50.5111 28.8412C49.2033 29.642 47.9063 29.9318 46.3956 29.9096C45.1425 29.8913 43.8534 30.1298 42.6349 30.4576C40.3399 31.0751 38.5026 32.3011 37.8485 34.8707ZM47.0994 34.4645C45.9262 35.1035 41.2859 35.4 39.225 34.9566C39.4399 33.7693 40.1368 32.9318 41.0985 32.2821C42.5985 31.2689 44.2743 30.7543 46.0651 30.6104C46.6432 30.5641 47.2282 30.6032 47.927 30.6032C46.8989 31.7973 46.5107 33.04 47.0994 34.4645ZM81.1509 24.3343C76.9828 28.1361 72.8596 31.996 68.2005 35.2066C64.7665 37.5731 61.1633 39.6357 57.0402 40.5741C52.8909 41.5184 48.7225 41.7252 44.5606 40.6492C42.9468 40.2321 41.4162 39.6143 40.2592 38.3334C39.6662 37.6769 39.2295 36.9419 39.1872 36.0196C40.161 36.0196 41.1024 36.0655 42.0378 36.0095C43.7316 35.908 45.4213 35.7386 47.114 35.616C47.401 35.5954 47.7871 35.5571 47.9711 35.7124C49.7523 37.2145 51.8845 37.6071 54.1076 37.7271C59.1659 38.0002 63.736 36.5136 68.011 33.9054C71.7414 31.6293 75.0448 28.8049 78.2376 25.8651C81.6225 22.7483 84.8381 19.4484 88.1579 16.2598C89.2457 15.215 90.4137 14.2515 91.5709 13.2816C92.4258 12.565 93.4376 12.1884 94.5519 12.103C94.7498 12.0878 94.95 12.1007 95.1727 12.1007C89.8024 15.4579 85.7151 20.1714 81.1509 24.3343ZM93.2142 26.4433C93.2967 25.9319 93.2905 25.3851 93.4774 24.9154C94.2126 23.0678 95.58 21.7521 97.2534 20.7535C97.8362 20.4057 98.5243 20.1398 99.1802 20.615C99.5299 20.8683 99.4239 21.8284 98.8127 22.4818C97.9516 23.4024 96.9932 24.2471 95.9968 25.0221C95.2241 25.6231 94.3292 26.0672 93.4889 26.5812C93.3972 26.5351 93.3057 26.4892 93.2142 26.4433Z" fill="white"></path><path d="M132.616 49.3971C131.78 48.7086 130.789 48.0804 129.763 47.7785C127.961 47.2485 126.078 46.9928 124.232 46.6101C123.94 46.5494 123.637 46.4672 123.379 46.3237C122.149 45.6381 120.935 44.9247 119.71 44.2282C119.25 43.966 118.778 43.7232 118.475 43.5596C118.686 42.7385 118.916 42.0781 118.999 41.3998C119.028 41.1577 118.751 40.7001 118.529 40.6357C117.519 40.3435 116.479 40.1566 115.45 39.9316C115.417 39.9946 115.383 40.0578 115.35 40.1207C115.466 40.1996 115.594 40.2658 115.697 40.3594C116.917 41.465 116.97 42.6085 115.774 43.7854C115.207 44.3431 114.565 44.8541 113.882 45.2598C111 46.9731 107.855 48.0648 104.645 48.9604C104.014 49.1363 103.279 49.1207 102.628 48.9997C101.796 48.8449 101.516 48.1697 101.941 47.4432C102.282 46.8593 102.703 46.2962 103.189 45.828C104.515 44.5508 105.907 43.3421 107.245 42.078C107.784 41.5696 108.396 41.3774 109.11 41.3808C110.007 41.3852 110.905 41.3944 111.801 41.3545C112.188 41.3373 112.569 41.2027 112.953 41.1212C112.94 41.0846 112.927 41.0479 112.914 41.0115H108.645C108.621 40.9636 108.598 40.9155 108.575 40.8675L114.16 36.6418C112.507 36.9938 110.879 37.1662 109.215 36.9764C109 36.9519 108.73 37.1249 108.534 37.2719C107.024 38.4066 105.508 39.5351 104.035 40.716C103.565 41.0925 103.106 41.1597 102.542 41.1407C101.981 41.1217 101.415 41.2477 100.851 41.31C100.857 41.3905 100.863 41.4711 100.869 41.5515C101.539 41.5889 102.208 41.6262 102.998 41.6702C101.679 43.0941 100.335 44.2587 98.3443 44.6912C99.3433 45.4649 98.9357 46.1357 98.4177 46.8158C98.2625 47.0196 98.142 47.2565 98.0418 47.4938C97.698 48.3073 97.8635 48.8942 98.5642 49.409C99.5554 50.1372 100.694 50.0183 101.776 49.8352C106.642 49.0113 111.319 47.5737 115.732 45.3304C117.223 43.8179 118.652 44.4499 120.07 45.455C120.167 45.523 120.28 45.5692 120.368 45.6462C120.581 45.8337 120.783 46.0331 121.112 46.3434C118.729 46.3142 116.567 46.4847 114.672 46.9926C116.699 46.9646 118.936 46.9422 121.172 46.8961C121.714 46.8849 121.92 47.1674 122.023 47.6365C122.218 48.5236 121.879 49.2688 120.937 49.8988C119.744 50.6963 118.383 51.014 116.987 51.1201C115.355 51.2443 113.716 51.2353 112.247 50.3342C111.201 49.6919 111.218 48.9769 112.316 48.6001C112.405 48.57 112.485 48.5148 112.566 48.4672C112.935 48.2509 112.837 48.0246 112.575 47.8016C112.056 47.361 110.494 47.5125 109.985 48.0508C109.501 48.5615 109.609 49.5599 110.345 50.1158C110.955 50.5759 111.656 50.9998 112.383 51.2037C115.648 52.1199 118.919 52.0275 122.149 50.9931C122.987 50.7248 123.773 50.3375 124.254 49.5295C124.685 48.8057 124.601 48.059 124.285 47.2214C126.377 47.6231 128.375 47.9585 130.172 48.981C130.417 49.1203 130.653 49.2834 130.868 49.4655C131.766 50.2269 131.871 51.2648 130.977 52.0228C130.31 52.5879 129.508 53.1126 128.68 53.3424C127.142 53.769 125.552 54.1023 123.963 54.2352C118.688 54.6767 113.455 54.2521 108.235 53.3845C102.618 52.451 97.3791 50.5692 92.5345 47.5872C91.9823 47.2475 91.4709 46.8417 90.9579 46.4789C92.5814 46.0387 94.1751 45.7042 95.6944 45.1613C96.7648 44.7788 97.8231 44.2306 98.7262 43.5446C99.9064 42.6485 99.7641 41.2708 98.5166 40.4348C98.0336 40.1109 97.483 39.8457 96.9254 39.6818C91.7224 38.1512 86.8912 39.1 82.3707 41.9527C81.9797 42.1993 81.5658 42.5252 81.3587 42.9179C81.1233 43.3641 81.0756 43.9235 81.0253 44.4414C81.0152 44.5455 81.346 44.7282 81.5458 44.7899C81.6571 44.8243 81.9427 44.6796 81.9407 44.6228C81.935 44.4571 81.8615 44.2599 81.7474 44.1383C81.4224 43.7918 81.4577 43.4315 81.7262 43.1201C82.0775 42.7134 82.4469 42.2987 82.8823 41.9924C85.099 40.4332 87.6147 39.6812 90.2781 39.3814C92.1504 39.1708 94.0178 39.2009 95.7818 39.9545C97.5585 40.7134 97.8302 42.1565 96.4856 43.5364C95.2993 44.7536 93.7145 45.1888 92.1573 45.6798C91.2456 45.9671 90.3878 46.1455 89.4815 45.5926C89.1276 45.3768 88.6136 45.4233 88.0118 45.3235C89.9531 43.9391 91.629 42.4897 93.8078 41.8532C93.0825 41.8084 92.3806 41.8135 91.6787 41.8074C89.756 41.7909 88.0021 42.2108 86.5026 43.5327C85.9726 43.9997 85.2395 44.233 84.6106 44.593C84.4247 44.6996 84.2668 44.8637 84.1154 45.0202C83.7857 45.3602 83.4656 46.0093 83.1467 46.0062C81.9831 45.9947 80.8214 45.7672 79.6184 45.616C79.7562 44.7767 79.8747 44.0573 79.9925 43.3377C80.2969 41.4765 80.7985 39.6191 80.8345 37.7527C80.8576 36.5584 81.2119 35.8236 82.0892 35.1895C82.2416 35.0794 82.3701 34.9371 82.5157 34.8167C83.8491 33.7129 85.2278 32.6777 86.932 32.2107C88.1938 31.865 88.1982 31.8838 88.6773 33.0659C88.6949 33.1093 88.7589 33.1337 88.8173 33.1795C88.9524 31.8133 88.6192 31.1896 87.3932 30.7214C86.8291 30.5059 86.2113 30.3719 85.6085 30.3269C83.6741 30.182 81.9556 30.8515 80.3021 31.7929C77.5714 33.3477 75.2584 35.4401 72.876 37.4474C71.9202 38.2527 70.9774 39.0987 69.8731 39.1494C69.5172 39.8258 69.3445 40.4753 68.931 40.8768C67.8841 41.893 66.7356 42.8056 65.6091 43.7374C65.4674 43.8546 65.2122 43.8824 65.0128 43.8741C64.2584 43.8428 63.5034 43.7982 62.7517 43.7253C56.102 43.0814 49.4548 42.4113 42.7643 42.3486C38.6026 42.3094 34.4454 42.3573 30.3575 43.2396C28.0288 43.7423 25.6897 44.285 23.6988 45.7113C22.5864 46.5082 21.6352 47.4518 21.3505 48.8669C21.3117 49.0602 21.3494 49.3798 21.4772 49.4782C22.4011 50.1904 23.3574 50.8609 24.3791 51.5994C24.3791 51.2705 24.3953 51.0638 24.3764 50.8602C24.2621 49.6196 24.645 48.5298 25.5929 47.7559C26.5524 46.9724 27.555 46.1706 28.6686 45.6598C32.3291 43.9806 36.2767 43.5103 40.2427 43.2022C45.7468 42.7745 51.2373 43.0934 56.7241 43.5426C57.3422 43.5932 57.9592 43.6584 58.5767 43.7168C58.3499 43.8829 58.1218 43.8793 57.9075 43.9325C56.5639 44.2669 55.1858 44.5124 53.8931 44.9877C52.7784 45.3977 51.9813 46.2804 51.6265 47.4635C51.5724 47.6437 51.6121 47.9802 51.7333 48.0641C52.4408 48.5545 53.1854 48.9912 53.9437 49.4621C53.9437 49.3631 53.961 49.2907 53.9411 49.2303C53.4448 47.7108 53.8368 46.4339 55.1875 45.6398C55.8664 45.2409 56.6466 44.8824 57.4147 44.7924C59.3776 44.5625 61.359 44.4877 63.3339 44.3641C63.7904 44.3356 64.2503 44.36 64.7085 44.36L64.7567 44.5464C64.4408 44.8151 64.1422 45.1081 63.806 45.3483C60.8298 47.4757 57.8469 49.5935 54.8662 51.7144C52.6518 53.2899 50.2333 54.4345 47.6202 55.1805C44.6541 56.0274 41.647 56.4109 38.5916 55.8372C36.8004 55.501 35.1716 54.7453 33.8911 53.393C33.147 52.6071 32.7574 51.6937 33.2345 50.6197C33.3317 50.401 33.5891 50.1439 33.8078 50.1056C36.1908 49.6892 38.5804 49.4201 40.9656 50.1103C41.1694 50.1692 41.3766 50.2181 41.5848 50.2599C41.7889 50.301 41.9959 50.3271 42.2017 50.3597C39.6687 49.2172 37.033 48.8494 34.2818 49.119C34.5269 48.7993 34.7717 48.5505 35.0446 48.3382C38.0203 46.0249 41.4616 45.238 45.1465 45.3385C45.7867 45.3561 46.4453 45.5766 47.0489 45.8191C47.6988 46.0802 47.7621 46.4664 47.3911 47.061C47.1789 47.4005 46.9089 47.7193 46.7754 48.0874C46.7001 48.295 46.7615 48.6772 46.9129 48.8187C47.3607 49.2372 48.5909 49.0076 49.1338 48.4672C49.5692 48.0336 49.5693 47.4338 49.0896 46.8009C48.4664 45.9788 47.6279 45.4037 46.6269 45.2462C45.1417 45.0127 43.6287 44.758 42.1367 44.8052C38.0577 44.9339 34.4519 46.2179 31.8224 49.5629C31.6914 49.7296 31.438 49.8083 31.2312 49.9056C30.2954 50.346 29.2715 50.6569 28.4342 51.2376C26.3581 52.6774 26.2839 54.8476 28.1629 56.5448C29.5879 57.832 31.3211 58.525 33.1572 58.93C34.6 59.2485 36.0756 59.4186 37.5365 59.6545H41.6467C41.7787 59.6154 41.9092 59.5471 42.0426 59.541C48.805 59.2383 54.734 56.5086 60.2797 52.9513C63.8076 50.6883 67.0394 47.9648 70.4125 45.4594C70.6191 45.3059 70.9159 45.1382 71.1437 45.1701C73.3874 45.4832 75.6265 45.8312 77.863 46.1924C78.024 46.2184 78.2336 46.3988 78.288 46.554C78.6405 47.5577 78.9561 48.5743 79.3446 49.7747C78.3834 50.3477 77.2725 51.1108 76.0747 51.696C74.8512 52.2938 73.5719 52.8247 72.2622 53.1857C71.0093 53.5309 69.686 53.6198 68.3935 53.8213C72.8219 53.9964 77.0394 53.2642 80.8567 50.8773C81.3548 50.5658 81.815 50.4096 82.4251 50.4319C83.961 50.4877 85.5012 50.4278 87.0397 50.4142C87.0392 50.3464 87.0384 50.2788 87.0379 50.2111C85.6224 50.051 84.2067 49.8909 82.7912 49.7307C82.7711 49.64 82.7512 49.5493 82.7311 49.4586C83.8875 48.6224 85.0427 47.7845 86.2038 46.9548C86.2708 46.907 86.3858 46.9213 86.479 46.9164C87.3746 46.869 88.2702 46.807 89.1665 46.7894C89.4056 46.7849 89.6836 46.8645 89.8825 46.9973C93.0915 49.1379 96.5979 50.6643 100.243 51.8432C107.646 54.2372 115.252 55.1216 123.017 54.6631C125.432 54.5204 127.812 54.1601 130.1 53.3692C130.954 53.0739 131.805 52.6495 132.522 52.1053C133.548 51.3266 133.608 50.2143 132.616 49.3971ZM69.6972 45.2484C65.4212 48.5126 61.3234 52.0313 56.5542 54.598C50.2595 57.9855 43.5843 59.763 36.3976 59.0608C34.7018 58.8952 33.0125 58.4392 31.3816 57.9229C30.5416 57.6569 29.7521 57.0562 29.0877 56.4456C27.6554 55.1297 27.7695 53.2286 29.3051 52.0348C29.8733 51.5931 30.5491 51.2895 31.2054 50.9054C32.0533 54.6292 34.9089 55.7356 38.0424 56.2078C43.714 57.0626 49.1695 55.9968 54.4755 53.9452C58.3787 52.4362 61.7556 50.0743 65.062 47.5841C66.0049 46.8739 66.951 46.1679 67.8897 45.452C68.7161 44.822 68.7124 44.8172 69.8708 44.9723C69.8057 45.079 69.7723 45.191 69.6972 45.2484ZM79.4036 38.7357C79.0037 40.9325 78.5787 43.1248 78.1481 45.3911C76.0002 45.1056 73.8622 44.8215 71.5137 44.5094C74.1883 42.1504 76.7341 39.9053 79.4122 37.5433C79.4122 38.0344 79.4655 38.3956 79.4036 38.7357ZM71.1319 44.1147C70.6477 44.5403 70.188 44.3528 69.6171 44.2594C69.7088 44.129 69.7455 44.0486 69.806 43.995C73.3544 40.8471 76.8764 37.6682 80.4709 34.5738C81.6602 33.5499 83.0134 32.7076 84.34 31.8574C84.8412 31.5361 85.4645 31.3412 86.0574 31.2465C86.5809 31.1628 87.1396 31.2984 87.6827 31.3372C87.6863 31.4333 87.69 31.5291 87.6935 31.6252C84.1523 32.1386 81.9335 34.6968 79.4567 36.8586C76.6833 39.2792 73.8964 41.6841 71.1319 44.1147ZM82.0765 47.3441C81.6477 47.7084 81.2052 48.0565 80.6565 48.5018C80.3325 47.8067 80.045 47.1898 79.6797 46.4062C80.7616 46.5214 81.6372 46.6148 82.6705 46.7249C82.3986 47.0109 82.2522 47.1947 82.0765 47.3441ZM87.0596 46.3736C87.3487 45.6313 87.9776 45.5249 88.6526 46.2939C88.0508 46.324 87.5638 46.3483 87.0596 46.3736Z" fill="white"></path><path d="M219.484 12.3619C218.753 11.9441 217.952 11.6237 217.15 11.3566C213.243 10.0554 209.206 9.74219 205.123 9.9005C202.433 10.0048 199.735 10.1404 197.14 10.9388C196.369 11.1762 195.648 11.6174 194.95 12.0406C194.6 12.2527 194.409 12.6433 194.718 13.0781C195.312 13.9112 197.393 13.9537 198.135 13.073C197.719 12.9175 197.314 12.8063 196.949 12.6175C196.656 12.4657 196.411 12.2198 196.145 12.0158C196.402 11.7719 196.624 11.4571 196.927 11.3018C197.319 11.1014 197.768 10.9871 198.205 10.9068C203.812 9.87499 209.35 10.4303 214.84 11.7181C215.695 11.9185 216.539 12.315 217.288 12.7809C218.472 13.5172 218.47 14.3494 217.348 15.1649C216.876 15.5074 216.338 15.7816 215.796 15.9993C211.548 17.703 207.071 18.1824 202.555 18.3873C197.783 18.6037 193.02 18.3051 188.263 17.9423C186.816 17.832 185.374 17.6677 183.745 17.5104C185.35 16.2276 186.813 15.1413 188.733 14.7944C189.537 14.649 189.852 15.064 190.023 15.6318C190.133 15.9992 190.194 16.3815 190.311 16.9122C190.81 15.3625 190.344 14.3124 189.009 13.7699C186.606 12.7928 184.223 13.0139 181.938 14.1045C180.495 14.7933 179.148 15.6805 177.747 16.4613C177.474 16.6138 177.144 16.8021 176.859 16.7747C175.238 16.6188 173.622 16.4132 172.006 16.2048C166.172 15.4525 160.328 14.8415 154.431 14.9461C152.226 14.9852 150.042 15.1656 147.94 15.8832C146.863 16.251 145.868 16.772 145.159 17.8098C146.401 18.5089 147.602 19.1848 148.899 19.9153C148.79 18.1467 149.866 17.4007 151.166 16.8473C151.577 16.6727 152.007 16.5304 152.44 16.4222C154.881 15.8129 157.368 15.583 159.878 15.5555C164.712 15.5025 169.483 16.2003 174.263 16.7804C175.057 16.8768 175.846 17.0029 176.708 17.1252C174.91 18.5636 173.234 19.94 171.518 21.266C170.264 22.2359 169.168 23.5136 167.352 23.5221C167.405 24.8706 167.532 24.5456 166.558 25.4222C160.821 30.5846 154.69 35.2189 147.98 39.0556C142.567 42.15 136.803 43.7087 130.532 42.9343C128.631 42.6996 126.862 42.0659 125.289 40.9461C124.237 40.1978 123.56 39.2317 123.462 37.8992C123.372 36.6691 123.768 35.9422 124.895 35.4658C126.787 34.6663 128.778 34.2156 130.816 34.1962C132.878 34.1765 134.941 34.3763 136.742 34.4666C133.491 33.1124 129.877 33.2103 126.164 34.0162C126.242 33.8858 126.262 33.8076 126.312 33.7761C129.879 31.5138 133.725 30.2595 137.992 30.6639C138.775 30.7378 139.571 30.9812 140.293 31.2987C141.147 31.6737 141.203 32.3132 140.565 32.9902C140.339 33.2302 140.082 33.4469 139.89 33.7116C139.636 34.0644 139.661 34.4289 140.028 34.7086C140.568 35.1199 142.231 34.8849 142.766 34.3321C143.195 33.8895 143.133 33.1393 142.591 32.384C141.84 31.3379 140.742 30.7968 139.536 30.6286C137.767 30.3815 135.971 30.1716 134.189 30.1927C130.338 30.238 126.761 31.3126 123.713 33.7275C122.543 34.6551 121.54 35.8202 120.572 36.9706C119.63 38.0894 119.651 39.2571 120.468 40.4917C120.713 40.8615 121.014 41.2089 121.344 41.5052C122.993 42.9863 125.013 43.7203 127.121 44.1985C132.35 45.3847 137.59 45.0761 142.804 44.1041C148.519 43.0388 153.573 40.4057 158.433 37.3395C164.161 33.7251 169.345 29.3972 174.539 25.0812C177.28 22.8033 180.027 20.5314 182.792 18.2837C183.052 18.0727 183.473 17.947 183.81 17.9642C185.437 18.0477 187.061 18.1856 188.684 18.3187C196.383 18.9494 204.059 18.915 211.694 17.5654C214.405 17.0862 217.05 16.4124 219.467 15.0473C220.677 14.3644 220.697 13.0551 219.484 12.3619ZM180.517 19.3589C175.628 23.3751 170.809 27.4807 165.833 31.3864C161.34 34.9127 156.707 38.2583 151.503 40.725C147.226 42.7522 142.734 43.9207 138.04 44.3469C134.548 44.6638 131.059 44.6848 127.608 43.9217C126.032 43.5731 124.501 43.0851 123.184 42.1107C122.096 41.3061 121.281 40.3304 121.448 38.8481C121.461 38.7382 121.504 38.6318 121.587 38.3237C122.687 41.5065 125.354 42.2989 127.965 43.0519C130.698 43.8402 133.528 43.6887 136.34 43.5737C143.676 43.2735 150.258 40.6789 156.368 36.8199C159.556 34.8066 162.576 32.5241 165.638 30.3176C170.551 26.778 175.019 22.6975 179.584 18.7364C180.338 18.0826 181.079 17.2991 182.341 17.8964C181.71 18.4019 181.108 18.8734 180.517 19.3589ZM182.023 17.3697C182.999 15.8401 186.306 14.3045 188.263 14.4187C186.321 14.8056 184.885 16.0414 183.364 17.1483C183.027 17.3932 182.485 17.3565 182.023 17.3697Z" fill="white"></path><path d="M214.81 30.5296C214.184 30.3442 213.515 30.2226 212.864 30.2176C210.641 30.2007 208.591 30.8715 206.651 31.9239C205.785 32.3933 204.909 32.8424 203.96 33.3419C203.749 34.5215 203.52 35.8032 203.241 37.3595C202.089 37.647 200.688 38.0475 199.264 38.3287C198.634 38.453 197.956 38.2825 197.614 37.621C197.288 36.9899 197.563 36.4313 197.958 35.923C198.102 35.7366 198.244 35.5424 198.418 35.3851C200.268 33.7036 202.119 32.0224 203.989 30.3627C204.16 30.2112 204.46 30.1577 204.704 30.1455C205.954 30.0832 207.205 30.0592 208.455 29.9996C208.823 29.982 209.188 29.8922 209.554 29.8355C209.542 29.7792 209.531 29.723 209.519 29.6667H204.638C206.828 28.0694 208.85 26.5955 210.871 25.1215C210.535 25.0545 210.267 25.1489 209.994 25.1712C208.756 25.2708 207.514 25.4438 206.28 25.4015C205.549 25.3764 204.966 25.4365 204.386 25.9052C202.899 27.1075 201.385 28.2759 199.864 29.434C199.639 29.6046 199.319 29.7291 199.04 29.7342C197.316 29.7665 195.592 29.76 193.868 29.7608C193.723 29.7609 193.578 29.7207 193.291 29.6782C195.486 28.0151 197.564 26.4403 199.641 24.8657C197.953 25.1731 196.303 25.3237 194.619 25.0566C194.329 25.0107 193.944 25.244 193.675 25.4455C192.467 26.3523 191.204 27.2097 190.113 28.2453C188.771 29.5203 187.306 30.2278 185.435 30.0241C185.227 30.0016 184.998 30.1773 184.778 30.2611C184.799 30.3221 184.819 30.3827 184.839 30.4437C185.729 30.3668 186.619 30.2899 187.704 30.1962C186.368 31.5492 185.212 32.7671 183.339 32.9446C183.654 33.9209 183.267 35.2985 182.586 35.7082C181.781 36.1931 180.975 36.6856 180.13 37.0927C179.261 37.5109 178.353 37.855 177.443 38.1766C177.184 38.2682 176.702 38.2777 176.598 38.1301C176.448 37.9188 176.464 37.4945 176.569 37.2231C176.736 36.7932 176.983 36.3696 177.287 36.0223C178.578 34.5478 179.896 33.098 181.215 31.6482C181.814 30.99 182.435 30.3531 183.165 29.5811C182.461 29.7003 181.937 29.8473 181.407 29.8674C180.052 29.9187 178.747 30.0555 177.784 31.2766C177.014 30.3945 176.024 29.9292 174.868 29.9143C173.95 29.9025 173.012 29.8827 172.118 30.0519C169.524 30.5427 167.358 31.7307 166.104 34.188C164.928 36.4929 166.212 38.6494 168.786 38.6398C169.671 38.6365 170.565 38.4672 171.437 38.2889C172.119 38.1498 172.774 37.8797 173.443 37.6668C173.693 38.7627 174.054 39.0731 175.081 39.078C175.386 39.0796 175.71 39.0852 175.993 38.991C177.712 38.4166 179.423 37.8163 181.135 37.2185C181.434 37.1143 181.722 36.9803 182.027 36.8551C182.305 38.1477 183.319 38.9119 184.741 38.9574C186.185 39.0038 187.582 38.7749 188.824 38.0106C190.33 37.0839 191.789 36.0816 193.276 35.1242C193.581 34.928 193.921 34.7864 194.245 34.6196C194.285 34.68 194.325 34.7405 194.365 34.8007C194.049 35.3213 193.711 35.8306 193.42 36.365C192.86 37.3936 193.203 38.3881 194.303 38.7661C194.873 38.9621 195.498 39.0671 196.101 39.0847C198.479 39.1537 200.715 38.4446 202.945 37.737C203.428 37.5833 203.775 37.5642 204.198 37.969C204.569 38.3229 205.115 38.5685 205.625 38.6871C207.663 39.1618 209.664 38.9499 211.584 38.1269C213.639 37.2462 215.345 35.9574 216.285 33.8482C216.932 32.397 216.315 30.9753 214.81 30.5296ZM175.349 34.2361C174.891 35.0573 174.359 35.8372 173.856 36.633C173.781 36.7507 173.72 36.9134 173.609 36.9652C172.443 37.5156 171.25 37.9725 169.931 37.5716C169.135 37.3295 168.636 36.7517 168.536 35.9451C168.439 35.1553 169.002 34.7079 169.626 34.3594C169.891 34.2114 170.168 34.0843 170.549 33.8922C170.203 33.7627 169.955 33.6702 169.523 33.5083C169.811 33.0678 170.005 32.5756 170.359 32.2659C171.966 30.8596 173.843 30.3454 175.955 30.7566C176.001 30.7655 176.058 30.7636 176.091 30.7901C176.494 31.1133 176.893 31.441 177.293 31.7676C176.913 31.9585 176.534 32.1498 176.154 32.3394C176.15 32.3416 176.146 32.3433 176.142 32.3454C176.147 32.3431 176.15 32.3417 176.156 32.3392C175.834 33.11 175.646 33.7035 175.349 34.2361ZM195.53 32.8879C194.157 33.3962 193.174 34.1947 192.13 35.1131C191.042 36.0708 189.746 36.7926 188.54 37.6166C188.501 37.6431 188.458 37.6627 188.414 37.6801C187.878 37.8953 187.285 38.1127 186.821 37.6621C186.346 37.2017 186.531 36.5735 186.813 36.0825C187.138 35.5168 187.526 34.9586 187.994 34.5093C189.407 33.1543 190.856 31.8373 192.328 30.5471C192.598 30.3102 193.036 30.1656 193.402 30.1538C195.123 30.0983 196.846 30.1029 198.568 30.0902C198.676 30.0893 198.784 30.1238 198.893 30.1418C198.929 30.2107 198.966 30.2797 199.003 30.3486C197.855 31.2233 196.823 32.4089 195.53 32.8879ZM206.977 34.6845C208.13 33.254 209.623 32.2823 211.393 31.7626C211.662 31.6835 211.952 31.635 212.231 31.639C212.781 31.6468 213.467 31.6808 213.573 32.2908C213.634 32.6457 213.254 33.1876 212.926 33.4804C211.696 34.5767 208.094 36.1691 206.087 36.5213C206.431 35.791 206.6 35.1536 206.977 34.6845ZM215.634 34.0355C214.495 36.7522 210.593 38.8036 207.722 38.2499C206.755 38.0635 206.412 37.739 206.332 36.8874C209.665 35.6965 213.112 34.8428 215.698 32.235C215.777 32.2655 215.855 32.2961 215.933 32.3266C215.84 32.8989 215.852 33.5155 215.634 34.0355Z" fill="white"></path></svg> 